<svg width="25" height="25" viewBox="0 0 25 25" fill="none" xmlns="http://www.w3.org/2000/svg">
<path d="M16.2202 12.5C16.2202 13.2358 16.0021 13.9551 15.5933 14.5669C15.1845 15.1787 14.6035 15.6555 13.9237 15.9371C13.2439 16.2186 12.4959 16.2923 11.7742 16.1488C11.0526 16.0052 10.3897 15.6509 9.86941 15.1306C9.34912 14.6103 8.9948 13.9474 8.85126 13.2258C8.70771 12.5041 8.78138 11.7561 9.06296 11.0763C9.34453 10.3966 9.82137 9.81553 10.4332 9.40675C11.0449 8.99796 11.7642 8.77977 12.5 8.77977C13.4863 8.78091 14.4319 9.17323 15.1294 9.87066C15.8268 10.5681 16.2191 11.5137 16.2202 12.5ZM24.1258 7.38468V17.6153C24.1238 19.3414 23.4372 20.9962 22.2167 22.2167C20.9962 23.4372 19.3414 24.1238 17.6153 24.1258H7.38468C5.65862 24.1238 4.00381 23.4372 2.7833 22.2167C1.56279 20.9962 0.876237 19.3414 0.874268 17.6153V7.38468C0.876237 5.65862 1.56279 4.00381 2.7833 2.7833C4.00381 1.56279 5.65862 0.876237 7.38468 0.874268H17.6153C19.3414 0.876237 20.9962 1.56279 22.2167 2.7833C23.4372 4.00381 24.1238 5.65862 24.1258 7.38468ZM18.0804 12.5C18.0804 11.3963 17.7531 10.3174 17.1399 9.39973C16.5267 8.48205 15.6552 7.7668 14.6355 7.34443C13.6158 6.92207 12.4938 6.81156 11.4113 7.02688C10.3289 7.2422 9.33453 7.77368 8.5541 8.5541C7.77368 9.33453 7.2422 10.3289 7.02688 11.4113C6.81156 12.4938 6.92207 13.6158 7.34443 14.6355C7.7668 15.6552 8.48205 16.5267 9.39973 17.1399C10.3174 17.7531 11.3963 18.0804 12.5 18.0804C13.9795 18.0787 15.3979 17.4902 16.4441 16.4441C17.4902 15.3979 18.0787 13.9795 18.0804 12.5ZM19.9405 6.45462C19.9405 6.1787 19.8587 5.90898 19.7054 5.67955C19.5521 5.45013 19.3342 5.27132 19.0793 5.16573C18.8244 5.06014 18.5438 5.03251 18.2732 5.08634C18.0026 5.14017 17.754 5.27304 17.5589 5.46815C17.3638 5.66325 17.2309 5.91183 17.1771 6.18246C17.1233 6.45308 17.1509 6.73358 17.2565 6.9885C17.3621 7.24342 17.5409 7.4613 17.7703 7.6146C17.9998 7.76789 18.2695 7.84971 18.5454 7.84971C18.9154 7.84971 19.2702 7.70273 19.5319 7.4411C19.7935 7.17947 19.9405 6.82463 19.9405 6.45462Z" fill="white"/>
</svg>
