<svg width="24" height="24" viewBox="0 0 24 24" fill="none" xmlns="http://www.w3.org/2000/svg">
<path d="M19.7697 4.12454C18.7516 3.09698 17.5391 2.28232 16.203 1.72804C14.8669 1.17376 13.4338 0.890938 11.9872 0.896065C5.92586 0.896065 0.985985 5.83455 0.980433 11.8973C0.980433 13.8391 1.48844 15.7282 2.44754 17.4007L0.891602 23.104L6.72673 21.5744C8.34098 22.4529 10.1494 22.9134 11.9872 22.9138H11.9928C18.0556 22.9138 22.994 17.9753 22.9996 11.907C23.001 10.4608 22.7162 9.02859 22.1616 7.69291C21.607 6.35723 20.7937 5.14448 19.7683 4.12454H19.7697ZM11.9872 21.0511C10.348 21.0517 8.73891 20.6106 7.32912 19.7742L6.996 19.5743L3.53434 20.4821L4.45875 17.1051L4.24222 16.7567C3.32588 15.2997 2.84124 13.6129 2.84451 11.8918C2.84451 6.85889 6.94881 2.7532 11.9928 2.7532C13.1944 2.75105 14.3846 2.98677 15.4947 3.44677C16.6048 3.90678 17.6129 4.58197 18.4608 5.43342C19.3117 6.28155 19.9863 7.28976 20.4456 8.39989C20.9049 9.51001 21.1398 10.7001 21.1369 11.9015C21.1313 16.9524 17.027 21.0511 11.9872 21.0511ZM17.0048 14.2028C16.7314 14.0654 15.3809 13.4005 15.1269 13.3061C14.8743 13.2159 14.6897 13.1687 14.5092 13.4435C14.3246 13.717 13.7972 14.3402 13.639 14.5192C13.4807 14.7038 13.3169 14.7247 13.0421 14.5886C12.7687 14.4498 11.8817 14.1611 10.8324 13.2215C10.0135 12.4928 9.46525 11.5906 9.30147 11.3171C9.14323 11.0423 9.2862 10.8952 9.42361 10.7578C9.54436 10.6356 9.69704 10.4358 9.83445 10.2775C9.97325 10.1193 10.0191 10.0027 10.1093 9.81949C10.1995 9.63349 10.1565 9.47526 10.0885 9.33785C10.0191 9.20044 9.4708 7.84437 9.23901 7.2975C9.01693 6.75757 8.79068 6.83252 8.62135 6.82558C8.46312 6.81586 8.27851 6.81586 8.09391 6.81586C7.9545 6.81933 7.81732 6.85157 7.69097 6.91057C7.56461 6.96957 7.45182 7.05404 7.35966 7.1587C7.10704 7.43352 6.40055 8.09837 6.40055 9.45444C6.40055 10.8105 7.38603 12.1138 7.52483 12.2984C7.66085 12.483 9.4597 15.2577 12.2204 16.4513C12.8728 16.7359 13.3863 16.9038 13.7875 17.0315C14.4468 17.2425 15.0422 17.2106 15.5169 17.1425C16.0443 17.062 17.1423 16.4763 17.374 15.8337C17.6017 15.1896 17.6017 14.64 17.5323 14.5248C17.4643 14.4082 17.2797 14.3402 17.0048 14.2028Z" fill="#B2A4D5"/>
</svg>
