<svg width="24" height="24" viewBox="0 0 24 24" fill="none" xmlns="http://www.w3.org/2000/svg">
<path d="M11.73 0.75C9.95044 0.75 5.54848 0.935259 3.20701 3.15837C1.52115 4.73307 0.865535 7.14143 0.771876 10.0129C0.584559 14.5518 1.61481 17.4233 3.30067 18.9054C3.6753 19.1833 4.61189 19.9243 6.39141 20.4801V22.7958C6.39141 22.7958 6.39141 23.7221 6.95336 23.9074C7.04702 23.9074 7.14068 24 7.23434 24C7.79629 24 8.26458 23.3516 8.9202 22.7032C9.48215 22.0548 9.95044 21.5916 10.2314 21.1285H12.2919C14.0714 21.1285 18.4734 20.9432 20.8149 18.7201C22.5007 17.0528 23.1563 14.6444 23.1563 11.5876C23.25 11.1245 23.25 10.5687 23.25 10.0129C23.1563 6.58566 22.1261 4.26992 20.7212 2.97311C20.1593 2.50996 17.7241 0.75 12.4792 0.75H11.73ZM11.5426 2.50996H12.3856C17.3495 2.50996 19.2227 4.08466 19.41 4.26992C20.5339 5.19622 21.1895 7.23406 21.2832 9.92032V10.2908C21.3768 10.8466 21.3768 11.3098 21.3768 11.5876C21.2832 14.3665 20.7212 16.2191 19.5973 17.4233C17.6305 19.1833 13.5095 19.2759 12.3856 19.2759H10.6061L9.10751 20.9432L8.17092 21.9622L7.98361 22.24C7.79629 22.4253 7.51531 22.7958 7.328 22.8884V18.7201C5.45482 18.257 4.70555 17.6086 4.51823 17.4233C3.20701 16.3118 2.45774 13.6255 2.64505 10.0129V9.08665C2.83237 6.86355 3.39432 5.38147 4.33091 4.36255C6.29775 2.60259 10.4187 2.50996 11.5426 2.50996ZM11.449 4.54781C10.9807 4.54781 10.9807 5.19622 11.449 5.19622C14.9144 5.19622 17.9114 7.51195 17.9114 11.8655C17.9114 12.3287 18.5671 12.3287 18.5671 11.8655C18.5671 7.14143 15.3827 4.45518 11.449 4.54781ZM7.73729 5.40463C7.52507 5.37948 7.31132 5.43732 7.14161 5.56581C6.20503 6.02895 5.2675 6.9571 5.54848 7.97603C5.54848 7.97603 5.73579 8.80877 6.76604 10.5687C7.328 11.4024 7.79629 12.1434 8.26458 12.6992C8.73288 13.3476 9.48215 14.0886 10.2314 14.6444C11.73 15.8486 14.0714 17.0528 15.1017 17.3307C16.0383 17.6086 17.0685 16.6823 17.5368 15.756C17.7241 15.3855 17.6305 14.9223 17.2558 14.6444C16.6939 14.0886 15.7573 13.4402 15.1017 13.0697C14.6334 12.7918 14.0714 12.9771 13.8841 13.255L13.4158 13.8108C13.2285 14.0886 12.7602 14.0886 12.7602 14.0886C9.66947 13.255 8.82654 10.1056 8.82654 10.1056C8.82654 10.1056 8.82654 9.73506 9.10751 9.45717L9.66947 8.99402C9.95044 8.80876 10.1378 8.25299 9.85678 7.78984C9.66947 7.51195 9.38849 6.95617 9.10751 6.67829C8.82654 6.30777 8.26458 5.65936 8.26458 5.65936C8.12249 5.51863 7.93687 5.42896 7.73729 5.40463ZM12.1046 6.4004C11.6363 6.30777 11.5426 7.0488 12.0109 7.0488C14.6334 7.23406 16.1319 8.99402 16.0383 11.2171C15.9446 11.6803 16.6939 11.6803 16.6939 11.2171C16.7875 8.62351 15.1017 6.49303 12.1046 6.4004ZM12.3856 8.16036C11.9173 8.06773 11.9173 8.80876 12.3856 8.80876C13.5095 8.80876 14.0714 9.45717 14.0714 10.5687C14.1651 11.0319 14.8207 11.0319 14.8207 10.5687C14.727 9.08665 13.8841 8.16036 12.3856 8.16036Z" fill="#B2A4D5"/>
</svg>
