<svg width="170" height="116" viewBox="0 0 170 116" fill="none" xmlns="http://www.w3.org/2000/svg">
<path fill-rule="evenodd" clip-rule="evenodd" d="M90.3976 64.734C86.099 62.7387 81.9966 60.3407 78.1446 57.5719C68.4803 50.6041 61.0799 40.9158 56.8747 29.7261C70.1304 28.9617 81.4034 33.0587 90.8382 40.0068C90.5546 38.5902 90.3368 37.115 90.1849 35.5811C80.1804 28.7018 67.0766 24.2074 53.3955 27.3107C57.6495 45.1357 71.8168 58.8484 88.6504 67.822C89.2125 66.7672 89.7899 65.7353 90.3976 64.734Z" fill="white"/>
<path fill-rule="evenodd" clip-rule="evenodd" d="M87.4806 69.9852C83.0834 69.4794 78.7148 68.7472 74.392 67.7915C63.4532 65.4449 52.013 60.0179 46.6348 50.6239C52.2218 48.8924 58.0404 48.0365 63.8862 48.0862C64.6458 49.0417 65.4587 49.9742 66.2943 50.8838C61.3196 50.7608 56.3472 51.2096 51.4737 52.2214C60.012 62.2575 73.3057 66.3927 87.3591 67.1495L88.6049 67.8221C88.2479 68.533 87.8605 69.2515 87.4806 69.9852Z" fill="white"/>
<path fill-rule="evenodd" clip-rule="evenodd" d="M88.0732 68.5483H88.2328L88.3695 68.2807L88.0732 68.5253V68.5483ZM113.833 70.4974C120.441 70.1616 127.008 69.2564 133.462 67.7915C144.393 65.445 155.833 60.018 161.219 50.6239C155.629 48.8923 149.808 48.0363 143.96 48.0862L143.724 48.3767L143.14 49.0799L142.608 49.699L142.312 50.0354L141.552 50.8762C146.527 50.7536 151.499 51.2023 156.373 52.2138C147.827 62.2499 134.54 66.3851 120.457 67.1418L120.183 67.2947L119.143 67.8527L118.831 68.0209L117.828 68.5483L117.464 68.7317L116.514 69.2056L116.066 69.4273L115.185 69.8553L114.676 70.0923L113.833 70.4974Z" fill="white"/>
<path fill-rule="evenodd" clip-rule="evenodd" d="M113.992 38.3329C115.587 28.5108 114.562 15.7001 103.957 3.50079C86.7892 23.1832 94.5907 44.3943 98.1078 52.2061L98.5104 53.1004C97.652 54.1323 96.8316 55.1719 96.034 56.219C94.7078 53.1682 93.5389 50.0505 92.5321 46.8785L92.4181 46.5116C92.1522 45.6555 91.894 44.7841 91.6585 43.9051C88.3464 32.1033 88.4984 13.0859 103.957 0C116.111 10.3113 118.755 24.3068 117.722 35.5583C116.673 36.2768 115.661 37.0182 114.683 37.7826L113.992 38.3329Z" fill="white"/>
<path fill-rule="evenodd" clip-rule="evenodd" d="M81.2817 97.2578C84.9604 87.6213 89.1781 78.202 93.9145 69.045C105.59 47.3294 124.004 28.0904 150.994 29.6573C146.788 40.8466 139.388 50.5347 129.724 57.5031C118.762 65.4067 106.722 69.4807 93.8841 72.0872C95.9428 74.7166 97.9558 77.1015 99.9613 79.578C107.482 88.7504 117.38 101.561 125.508 108.395C131.851 113.745 138.148 116.306 146.839 115.969C156.159 115.618 164.857 105.092 169.993 97.2425H167.714C166.506 99.0081 165.04 101.11 163.505 103.059C141.088 131.509 115.374 92.297 103.44 74.579C126.754 66.729 148.89 50.5856 154.473 27.2343C139.379 23.8176 124.991 29.6191 114.691 37.7137C100.258 49.034 93.2308 58.3974 86.3257 72.1713C85.3913 74.0363 77.2784 90.0727 73.7157 97.2578H81.2817ZM3.20582 74.5714H5.7886L20.2977 50.7079H27.5827L12.4507 74.5714H17.9201L15.5044 78.0034H10.2705L9.88307 78.592C8.15703 81.1203 6.70301 83.826 5.54552 86.6637C4.71751 88.865 4.46683 90.6919 4.78588 92.1441C4.88724 92.7871 5.16627 93.3883 5.5911 93.8793C5.78558 94.0663 6.01586 94.2115 6.26791 94.3061C6.51996 94.4007 6.7885 94.4427 7.0572 94.4296C8.72082 94.4296 10.8022 93.7187 13.2787 92.3047C15.6316 90.9132 17.845 89.2953 19.8875 87.4739C19.7198 85.5867 20.0227 83.6872 20.7687 81.9475C21.8825 79.4326 23.5472 77.2037 25.638 75.4275C27.4259 73.833 29.4283 72.5001 31.586 71.4681C33.3327 70.6267 35.2406 70.1781 37.177 70.1534C38.4199 70.0621 39.6631 70.3271 40.7625 70.9177C41.6329 71.5728 42.2094 72.5488 42.3653 73.6312C42.9376 76.2403 41.6259 78.9436 38.4304 81.7411C35.2348 84.5387 30.9631 86.5159 25.6152 87.6726C25.4492 88.2863 25.3549 88.9173 25.3342 89.553C25.3068 90.0939 25.3502 90.6362 25.4633 91.1658C25.6564 92.1806 26.2201 93.0859 27.0434 93.7035C27.9311 94.3316 28.9972 94.6534 30.0819 94.6207C32.2038 94.6207 34.622 93.8385 37.3365 92.2741C39.4425 91.0273 41.422 89.5757 43.2465 87.9401C43.2605 86.7996 43.4371 85.667 43.7706 84.5769C44.5178 82.3079 45.7731 80.2419 47.4397 78.5385C49.7097 75.996 52.4266 73.8971 55.4539 72.3471C58.0191 70.9267 60.8833 70.1407 63.81 70.054C64.9743 69.9764 66.1358 70.242 67.1524 70.8184C68.2766 71.7356 66.3244 71.8808 63.1795 73.2567C62.7768 73.4172 62.359 73.6159 61.9109 73.8453L61.3563 74.151C59.5667 75.2395 57.9314 76.5662 56.4946 78.0951C54.0477 80.5406 51.9971 83.3571 50.4175 86.442C48.9666 89.3542 48.3817 91.4792 48.6779 92.8244C48.7611 93.2752 49.0007 93.6815 49.354 93.971C49.6843 94.2485 50.1012 94.4 50.5314 94.399C51.7362 94.2761 52.8715 93.7731 53.7751 92.962C55.1822 91.8256 56.4092 90.4801 57.4138 88.972L60.0118 85.3184L67.1752 74.1434L68.3678 72.2095L69.2186 70.8719H76.3668L66.8485 85.9299C66.6054 86.2968 66.3775 86.6942 66.1572 87.0153C65.2718 88.347 64.5283 89.7689 63.9391 91.2575C63.7832 91.6705 63.681 92.1022 63.6352 92.5416C63.6138 92.7821 63.6292 93.0244 63.6808 93.2601C63.8707 94.1239 64.3949 94.3302 65.2001 94.3302C66.6738 94.3302 68.702 93.6194 71.2772 92.1824C74.0958 90.558 76.7166 88.6084 79.0863 86.3732L76.4124 91.7237C75.0868 92.7242 73.6989 93.6382 72.2572 94.4602C69.2186 96.1724 66.6282 97.0132 64.4784 97.0132C63.0398 97.0488 61.6315 96.5935 60.4827 95.7214C59.3824 94.856 58.6276 93.6218 58.3557 92.2435C58.2971 92.0226 58.2539 91.7979 58.2266 91.5709C58.212 91.426 58.212 91.2801 58.2266 91.1352C56.9241 92.8601 55.3635 94.3711 53.6004 95.6144C52.362 96.538 50.8786 97.0701 49.3388 97.1431C48.6545 97.1508 47.9764 97.0125 47.3492 96.7371C46.7219 96.4617 46.1599 96.0556 45.7001 95.5456C44.5996 94.2847 43.8662 92.7427 43.5807 91.0893V91.0052C41.904 92.4271 40.0865 93.6719 38.1569 94.7201C35.6299 96.1876 32.7849 97.0115 29.8692 97.1202C27.5826 97.1655 25.3578 96.3721 23.6098 94.8882C22.1239 93.6295 21.0316 91.965 20.4649 90.0957C18.4765 91.8498 16.3185 93.399 14.0231 94.7201C11.1466 96.3252 8.58408 97.1253 6.33555 97.1202C4.92296 97.1712 3.53685 96.7253 2.4158 95.859C1.32246 94.9847 0.576074 93.7456 0.311594 92.3658C-0.16741 89.9391 -0.0395013 87.4307 0.683818 85.0661C1.42862 82.6016 2.44795 80.2298 3.72238 77.9958H0.759782L3.17544 74.5638L3.20582 74.5714ZM27.7346 82.3832C27.5813 82.7755 27.3686 83.1417 27.1041 83.4686C26.8838 83.8508 26.6635 84.233 26.4432 84.6457C30.7732 83.6979 34.2549 82.1692 36.8883 80.0595C39.5243 77.9499 40.6485 75.9931 40.2459 74.1586C40.1686 73.6412 39.9383 73.1591 39.585 72.7751C39.2168 72.4892 38.7578 72.3479 38.2936 72.3777C36.6148 72.3777 34.7765 73.4172 32.771 75.5116C30.8434 77.6065 29.1541 79.9113 27.7346 82.3832Z" fill="white"/>
<path fill-rule="evenodd" clip-rule="evenodd" d="M146.269 72.2096L147.12 70.872H154.26L144.689 85.9682C144.446 86.3351 144.21 86.7325 143.99 87.0536C143.103 88.3834 142.362 89.8057 141.779 91.2958C141.621 91.7087 141.517 92.1402 141.468 92.5799C141.453 92.8207 141.471 93.0625 141.521 93.2984C141.703 94.1622 142.235 94.3685 143.04 94.3685C144.56 94.3685 146.55 93.6577 149.117 92.2207C151.967 90.5866 154.613 88.6187 157.002 86.358H160.314C160.049 86.6332 159.76 86.9236 159.456 87.2217L159.243 87.4281C156.507 90.1763 153.427 92.5555 150.082 94.5061C147.044 96.2183 144.453 97.0591 142.303 97.0591C140.865 97.096 139.456 96.6406 138.308 95.7673C137.205 94.9028 136.448 93.6686 136.173 92.2895C136.112 91.999 136.059 91.7544 136.044 91.6168C136.033 91.4718 136.033 91.3262 136.044 91.1811C134.739 92.9042 133.179 94.415 131.418 95.6603C130.179 96.5839 128.696 97.116 127.156 97.189C126.476 97.1975 125.802 97.0617 125.178 96.7904C124.553 96.5191 123.993 96.1184 123.533 95.6145C122.428 94.3523 121.692 92.8074 121.406 91.1506C120.906 89.0047 120.974 86.7645 121.603 84.6535C122.356 82.3854 123.614 80.3201 125.28 78.615C127.534 76.0674 130.239 73.9629 133.256 72.4083C135.81 70.993 138.66 70.2071 141.574 70.1152C142.743 70.0488 143.906 70.3306 144.917 70.9255C146.033 71.8351 144.089 71.9803 140.936 73.3561C140.541 73.5167 140.116 73.7154 139.675 73.9447L139.121 74.2505C137.33 75.337 135.694 76.6639 134.259 78.1946C131.812 80.6405 129.762 83.4569 128.182 86.5414C126.738 89.4537 126.153 91.5786 126.45 92.9239C126.533 93.3746 126.772 93.781 127.126 94.0704C127.455 94.3491 127.873 94.5008 128.303 94.4985C129.508 94.3756 130.643 93.8726 131.547 93.0615C132.952 91.9247 134.176 90.5793 135.178 89.0715L137.822 85.3873L145.091 74.1434L146.292 72.2555L146.269 72.2096Z" fill="white"/>
</svg>
